# xmcd CD database file
#
# Track frame offsets:
#	150
#	18547
#	34340
#	50272
#	71005
#	89875
#	108107
#	125050
#	142160
#	159205
#
# Disc length: 2421 seconds
#
# Revision: 0
# Processed by: cddbd v1.5.1PL0 Copyright (c) Steve Scherf et al.
# Submitted via: CDex 1.51
#
DISCID=8e09730a
DTITLE=早見優 - Who's Gonna Come?
DYEAR=1900
DGENRE=Pop
TTITLE0=Who's Gonna Come ?
TTITLE1=Yes It is
TTITLE2=Action
TTITLE3=Shake
TTITLE4=Sweet Diary
TTITLE5=Get up
TTITLE6=Complex Break out
TTITLE7=Checking out !!
TTITLE8=Lonely Liar
TTITLE9=Mr. Fortune
EXTD=
EXTT0=
EXTT1=
EXTT2=
EXTT3=
EXTT4=
EXTT5=
EXTT6=
EXTT7=
EXTT8=
EXTT9=
PLAYORDER=
